<svg width="107" height="47" viewBox="0 0 107 47" fill="none" xmlns="http://www.w3.org/2000/svg">
<path fill-rule="evenodd" clip-rule="evenodd" d="M100.205 29.7039H99.7126V47H91.1731V29.7039H90.6809L85.2554 32.1534L79.8407 29.7039H79.3377V47H70.809V29.7039H70.3167L64.8913 32.1534H61.285L59.4123 22.8689C59.3053 22.5052 58.9914 22.3448 58.4706 22.3876H57.7323V47H49.2677V22.3876H48.5294C48.0086 22.3448 47.6947 22.5052 47.5877 22.8689L45.715 32.1534H42.1087L36.6833 29.7039H36.191V47H27.6623V29.7039H27.1593L21.7339 32.1534L16.3191 29.7039H15.8162V47H7.28743V29.7039H6.79518L1.36974 32.1534L0 30.4848L7.08411 25.7142C7.93306 25.1722 9.24572 24.8798 11.0221 24.8371L11.814 24.8264C13.733 24.8477 15.1349 25.1437 16.0195 25.7142L21.7339 29.5649L27.4589 25.7142C28.3008 25.1722 29.6099 24.8798 31.3862 24.8371L32.1781 24.8264C34.0972 24.8477 35.5026 25.1437 36.3943 25.7142L42.6759 29.9392C43.482 25.1686 44.3096 20.9436 45.1585 17.264C45.6793 15.7522 46.1501 14.7396 46.5711 14.2262C47.3843 13.2136 48.2832 12.7252 49.2677 12.7608H57.7323C58.7096 12.7252 59.6085 13.2136 60.4289 14.2262C60.8499 14.7396 61.3171 15.7522 61.8308 17.264C62.6869 20.9436 63.5144 25.1686 64.3134 29.9392L70.6057 25.7142C71.4974 25.1437 72.8993 24.8477 74.8112 24.8264L75.6031 24.8371C77.3794 24.8798 78.6921 25.1722 79.5411 25.7142L85.2554 29.5649L90.9805 25.7142C91.8651 25.1437 93.267 24.8477 95.186 24.8264L95.9779 24.8371C97.7543 24.8798 99.0634 25.1722 99.9052 25.7142L107 30.4848L105.63 32.1534L100.205 29.7039ZM34.7357 22.2913C34.0151 23.0044 33.1448 23.3823 32.1246 23.4251H31.7287C30.7085 23.3823 29.8346 23.0044 29.1069 22.2913C28.3364 21.5497 27.9512 20.6441 27.9512 19.5744C27.9512 18.5119 28.3364 17.6063 29.1069 16.8575C29.8346 16.1516 30.7085 15.7808 31.7287 15.7451H32.1246C33.1448 15.7808 34.0151 16.1516 34.7357 16.8575C35.5062 17.6063 35.8914 18.5119 35.8914 19.5744C35.8914 20.6441 35.5062 21.5497 34.7357 22.2913ZM57.1758 8.58921C56.2199 9.5305 55.0748 10.0297 53.7408 10.0867H53.2592C51.918 10.0297 50.773 9.5305 49.8242 8.58921C48.8183 7.61227 48.3153 6.42854 48.3153 5.03801C48.3153 3.64034 48.8183 2.44591 49.8242 1.45471C50.773 0.527689 51.918 0.0427856 53.2592 0H53.7408C55.0748 0.0427856 56.2199 0.527689 57.1758 1.45471C58.1817 2.44591 58.6847 3.64034 58.6847 5.03801C58.6847 6.42854 58.1817 7.61227 57.1758 8.58921ZM79.0381 19.5744C79.0381 20.6441 78.6564 21.5497 77.8931 22.2913C77.1654 23.0044 76.2915 23.3823 75.2713 23.4251H74.8754C73.8552 23.3823 72.9813 23.0044 72.2536 22.2913C71.4903 21.5497 71.1086 20.6441 71.1086 19.5744C71.1086 18.5119 71.4903 17.6063 72.2536 16.8575C72.9813 16.1516 73.8552 15.7808 74.8754 15.7451H75.2713C76.2915 15.7808 77.1654 16.1516 77.8931 16.8575C78.6564 17.6063 79.0381 18.5119 79.0381 19.5744ZM95.6355 15.7451C96.6628 15.7808 97.5367 16.1516 98.2572 16.8575C99.0277 17.6063 99.4129 18.5119 99.4129 19.5744C99.4129 20.6441 99.0277 21.5497 98.2572 22.2913C97.5367 23.0044 96.6628 23.3823 95.6355 23.4251H95.2502C94.2301 23.3823 93.3561 23.0044 92.6285 22.2913C91.858 21.5497 91.4727 20.6441 91.4727 19.5744C91.4727 18.5119 91.858 17.6063 92.6285 16.8575C93.3561 16.1516 94.2301 15.7808 95.2502 15.7451H95.6355ZM14.3715 16.8575C15.142 17.6063 15.5273 18.5119 15.5273 19.5744C15.5273 20.6441 15.142 21.5497 14.3715 22.2913C13.6439 23.0044 12.7699 23.3823 11.7498 23.4251H11.3538C10.3337 23.3823 9.45975 23.0044 8.73207 22.2913C7.96873 21.5497 7.58706 20.6441 7.58706 19.5744C7.58706 18.5119 7.96873 17.6063 8.73207 16.8575C9.45975 16.1516 10.3337 15.7808 11.3538 15.7451H11.7498C12.7699 15.7808 13.6439 16.1516 14.3715 16.8575Z" fill="white"/>
</svg>
